<svg version="1.1" id="Layer_1" xmlns="http://www.w3.org/2000/svg" xmlns:xlink="http://www.w3.org/1999/xlink" x="0px" y="0px"
	 width="100%" viewBox="0 0 64 64" enable-background="new 0 0 64 64" xml:space="preserve">
<path fill="none" opacity="1.000000" stroke="none" 
	d="
M36.000000,65.000000 
	C24.022503,65.000000 12.545007,65.000000 1.033755,65.000000 
	C1.033755,43.730957 1.033755,22.461853 1.033755,1.096373 
	C22.226950,1.096373 43.454483,1.096373 64.841003,1.096373 
	C64.841003,22.332388 64.841003,43.666080 64.841003,65.000000 
	C55.462799,65.000000 45.981400,65.000000 36.000000,65.000000 
M25.845518,53.982967 
	C27.570076,54.332363 29.298056,54.665775 31.018591,55.033966 
	C37.822849,56.490078 42.873238,53.391895 46.914120,48.467430 
	C50.593235,43.983826 51.702682,37.963097 49.382343,33.261650 
	C44.955978,24.292995 38.998150,16.080173 32.971840,6.425305 
	C27.484018,15.025203 22.381250,22.242920 18.105593,29.921211 
	C12.883874,39.298450 16.346102,48.745411 25.845518,53.982967 
z"/>
<path class="hover-target" fill="#F4DBD4" opacity="1.000000" stroke="none" 
	d="
M25.489021,53.819916 
	C16.346102,48.745411 12.883874,39.298450 18.105593,29.921211 
	C22.381250,22.242920 27.484018,15.025203 32.971840,6.425305 
	C38.998150,16.080173 44.955978,24.292995 49.382343,33.261650 
	C51.702682,37.963097 50.593235,43.983826 46.914120,48.467430 
	C42.873238,53.391895 37.822849,56.490078 31.018591,55.033966 
	C29.298056,54.665775 27.570076,54.332363 25.489021,53.819916 
M44.222740,34.557598 
	C43.358727,32.668262 42.494709,30.778929 41.153950,27.847101 
	C41.153950,35.169941 41.153950,40.906288 41.153950,47.633106 
	C45.408276,43.411591 45.424984,39.426117 44.222740,34.557598 
z"/>
<path fill="#FF7F5C" opacity="1.000000" stroke="none" 
	d="
M44.436077,34.906639 
	C45.424984,39.426117 45.408276,43.411591 41.153950,47.633106 
	C41.153950,40.906288 41.153950,35.169941 41.153950,27.847101 
	C42.494709,30.778929 43.358727,32.668262 44.436077,34.906639 
z"/>
</svg>
